<?xml version="1.0" encoding="UTF-8"?>
<!DOCTYPE svg PUBLIC "-//W3C//DTD SVG 1.1//EN" "http://www.w3.org/Graphics/SVG/1.1/DTD/svg11.dtd">
<!-- Creator: CorelDRAW 2018 (64-Bit) -->
<svg xmlns="http://www.w3.org/2000/svg" xml:space="preserve" width="59.054mm" height="59.3212mm" version="1.1" style="shape-rendering:geometricPrecision; text-rendering:geometricPrecision; image-rendering:optimizeQuality; fill-rule:evenodd; clip-rule:evenodd"
viewBox="0 0 6979.5 7011.08"
 xmlns:xlink="http://www.w3.org/1999/xlink">
 <defs>
  <style type="text/css">
   <![CDATA[
    .fil1 {fill:#FEFEFE}
    .fil3 {fill:#A83503}
    .fil2 {fill:#FF7052}
    .fil0 {fill:url(#id0)}
   ]]>
  </style>
  <linearGradient id="id0" gradientUnits="userSpaceOnUse" x1="3489.76" y1="7011.08" x2="3489.76" y2="0">
   <stop offset="0" style="stop-opacity:1; stop-color:#116AA4"/>
   <stop offset="0.360784" style="stop-opacity:1; stop-color:#188AD1"/>
   <stop offset="1" style="stop-opacity:1; stop-color:#20ABFF"/>
  </linearGradient>
 </defs>
 <g id="Layer_x0020_1">
  <metadata id="CorelCorpID_0Corel-Layer"/>
  <rect class="fil0" x="-0" y="-0" width="6979.49" height="7011.08" rx="1221.46" ry="1194.11"/>
  <g id="_2859006599872">
   <path class="fil1" d="M2943.94 1641.33l-658.75 2634.93 17.08 -68.35c9.89,3.44 170.89,178.74 221,218.12 417.8,328.39 1315.26,326.2 1783.95,147.29 287.74,-109.82 307.8,-181.29 493.28,-385.66l-641.75 -2532.09 -1.42 1.09c17.17,65.88 32.18,121.56 43.2,165.25 3.72,67.05 -25.65,121.6 -133.39,176.81 -234.95,120.42 -809.78,121.11 -1044.38,-4.56 -95.32,-51.06 -124.9,-103.67 -124.45,-165.82 10.42,-45.42 27.41,-110.66 46.67,-185.78l-1.04 -1.22z"/>
   <path class="fil2" d="M4800.52 4187.65c-185.5,204.37 -205.55,275.84 -493.29,385.66 -468.69,178.91 -1366.15,181.1 -1783.95,-147.29 -50.11,-39.38 -211.11,-214.68 -221,-218.12 -20.48,81.96 -40.27,199.29 -77.54,269.09 -38.06,63.54 -660.44,300.71 -752,339.3 -148.86,62.71 -456.09,120.93 -406.85,311.15 27.37,105.71 357.83,219.43 461.76,267.98 290.74,135.8 1836.06,911.21 2015.14,913.8 169.14,2.45 823.8,-348.24 1022.29,-439.4 333.52,-153.16 664.76,-314.46 997.05,-470.27 97.55,-45.75 439.12,-167.52 464.34,-261.33 50.43,-187.58 -90.3,-192.73 -391.56,-318.23 -71.98,-29.98 -732.48,-291.57 -758.15,-331.86l-76.23 -300.48z"/>
   <path class="fil2" d="M3208.12 607.04c-74.57,323.56 -165.35,649.53 -246.92,971.91 -25.69,101.58 -49.62,191.55 -62.89,249.38 -0.45,62.14 29.13,114.76 124.45,165.82 234.6,125.67 809.44,124.98 1044.38,4.56 107.74,-55.21 137.11,-109.76 133.39,-176.81 -14.63,-58.08 -36.37,-137.35 -60.8,-233.63 -82.81,-326.28 -174.13,-654.79 -249.35,-981.22 -7.66,-12.8 -19.38,-22.34 -35.15,-31.69l0 0c-129.23,-66.76 -489.44,-62.95 -603.97,-2.02l-0.22 -0.71c-16.68,9.15 -28.85,18.39 -42.93,34.42z"/>
   <ellipse class="fil3" cx="3551.71" cy="628.62" rx="281.3" ry="67.93"/>
   <path class="fil2" d="M4402.27 2616.36c-33.4,50.89 -73.7,166.18 -330.38,255.97 -318.8,111.5 -940.08,123.8 -1234.57,-96.54 -82.98,-62.1 -101.24,-96.97 -137.37,-158.48l-194.34 777.29c5.39,50.03 31.14,99.43 92.15,152.73 442.46,386.61 1450.01,388.07 1895.99,5.98 68.64,-58.81 98.29,-118.58 102.81,-170.36l-194.29 -766.61z"/>
  </g>
 </g>
</svg>
