<?xml version="1.0" encoding="UTF-8" standalone="no"?>
<!-- Creator: CorelDRAW 2018 (64-Bit) -->

<svg
   xml:space="preserve"
   width="33.383038mm"
   height="28.3806mm"
   version="1.1"
   style="clip-rule:evenodd;fill-rule:evenodd;image-rendering:optimizeQuality;shape-rendering:geometricPrecision;text-rendering:geometricPrecision"
   viewBox="0 0 3639.38 3094.0092"
   id="svg155"
   xmlns="http://www.w3.org/2000/svg"
   xmlns:svg="http://www.w3.org/2000/svg">
 <defs
   id="defs86">
  <style
   type="text/css"
   id="style84">
   <![CDATA[
    .fil3 {fill:black}
    .fil1 {fill:#116AA4}
    .fil2 {fill:#FF7052}
    .fil0 {fill:white}
    .fil5 {fill:black;fill-rule:nonzero}
    .fil4 {fill:white;fill-rule:nonzero}
   ]]>
  </style>
 </defs>
 <g
   id="Layer_x0020_1"
   transform="translate(-2304.51,-0.04341639)">
  <metadata
   id="CorelCorpID_0Corel-Layer" />
  <g
   id="_2859006607136">
   <path
   class="fil0"
   d="M 2860.97,0 H 5387.4 c 306.07,0 556.49,216.19 556.49,480.43 v 1364.45 c 0,264.24 -250.43,480.44 -556.49,480.44 H 3895.3 l -822.85,768.7 v -768.7 h -211.47 c -306.07,0 -556.47,-216.19 -556.47,-480.44 V 480.43 C 2304.51,216.19 2554.91,0 2860.98,0 Z"
   id="path89" />
   <path
   class="fil1"
   d="m 3367.39,856.97 c 150.58,0 272.68,122.1 272.68,272.68 0,150.58 -122.1,272.68 -272.68,272.68 -150.62,0 -272.68,-122.1 -272.68,-272.68 0,-150.58 122.06,-272.68 272.68,-272.68 z m 1569.26,0 c 150.58,0 272.68,122.1 272.68,272.68 0,150.58 -122.1,272.68 -272.68,272.68 -150.58,0 -272.68,-122.1 -272.68,-272.68 0,-150.58 122.1,-272.68 272.68,-272.68 z m -779.09,0 c 150.62,0 272.68,122.1 272.68,272.68 0,150.58 -122.06,272.68 -272.68,272.68 -150.58,0 -272.68,-122.1 -272.68,-272.68 0,-150.58 122.1,-272.68 272.68,-272.68 z"
   id="path91" />
  </g>
  <g
   id="_2859006606240">
   <path
   class="fil0"
   d="m 6316.5,12496.11 c 217.82,217.38 428.08,428.81 647.12,647.91 94.04,94.05 200.44,228.62 370.48,279.44 368.99,110.27 719.1,-235.21 607.45,-607.47 -50.74,-169.23 -185.89,-276.49 -279.57,-370.32 -217.59,-217.99 -426.91,-436 -647.55,-647.41 14.41,-61.01 56.13,-147.69 77.76,-220.78 80.85,-273.2 68.75,-578.48 -17.98,-840.17 -351.67,-1060.98 -1662.27,-1288.87 -2384.51,-565.84 -453.42,453.93 -597.4,1214.25 -162.42,1841.93 154.09,222.37 390.94,426.22 717.58,538.82 168.28,58.02 370.59,86.86 566.77,72.49 235.29,-17.25 326.73,-84.43 504.85,-128.59 z"
   id="path94" />
   <path
   class="fil1"
   d="m 5574.99,10179.43 c -309.89,46.06 -512.45,188.75 -658.46,363.02 -145.94,174.18 -264.5,473.36 -220.93,782.24 72.53,514.08 541.79,962.04 1153.57,874.37 513.54,-73.6 955.66,-552.96 866.84,-1160.28 -73.09,-499.66 -547.62,-947.56 -1141.02,-859.35 z"
   id="path96" />
  </g>
  <g
   id="_2859006608288">
   <path
   class="fil0"
   d="m 2205.43,5581.29 c -72.78,22 -111.75,125.49 -168.14,224.32 -50.81,89.06 -97.16,168.49 -145.82,250.42 -391.05,658.43 -771.59,1346.65 -1160.91,2013.29 -48.47,83.02 -92.47,159.04 -145.64,251.08 -20.98,36.31 -59.56,83.06 -39.16,142.14 18.97,54.95 67.77,69.94 131.45,70.03 l 2377.4,-0.39 c 136.24,-0.02 702.16,17.92 790.02,-4.49 46.01,-11.74 83.68,-54.6 77.48,-113.51 -3.36,-31.9 -52.59,-107.83 -67.94,-134.45 -46.46,-80.55 -93.76,-166.25 -145.42,-253.38 -293.88,-495.55 -578.78,-1009.69 -870.28,-1506.56 -96.94,-165.25 -195.09,-337.54 -290.98,-504.04 -50.55,-87.78 -96.26,-166.04 -145.57,-251.18 -42.29,-73.05 -90.35,-215.36 -196.49,-183.27 z"
   id="path99" />
   <path
   class="fil2"
   d="m 2153.41,7724.09 151.4,3.71 c 16,-38.46 129.73,-1088.53 136.23,-1200.86 8.46,-147.13 -54.12,-250.87 -199.94,-254.58 -138.8,-3.58 -226.5,84.69 -220.83,226.19 l 133.13,1225.54 z m 77.1,107.67 c 114.47,0 207.27,92.8 207.27,207.27 0,114.47 -92.8,207.27 -207.27,207.27 -114.47,0 -207.27,-92.8 -207.27,-207.27 0,-114.47 92.8,-207.27 207.27,-207.27 z"
   id="path101" />
  </g>
  <g
   id="_2859006608736">
   <path
   class="fil0"
   d="m 5987.84,21868.37 c -609.24,57.73 -1097.13,422.17 -1314.77,986.18 -156.14,404.6 -123.1,877.1 79.52,1255.21 400.4,747.16 1325.03,1036.09 2068.95,637.75 330.32,-176.87 579.13,-455.8 717.25,-813.75 156.14,-404.6 123.1,-877.1 -79.52,-1255.21 -279.96,-522.41 -854.5,-868.63 -1471.43,-810.18 z"
   id="path104" />
   <path
   class="fil1"
   d="m 5888.62,23682.52 c -94.12,-65.39 -180.15,-128.17 -273.43,-194.6 -72.75,-51.82 -188.11,-169.35 -336.49,-117.9 -109.42,37.95 -192.21,177.6 -126.45,310.31 46.81,94.48 429.48,343.22 534.42,418.05 72.12,51.41 187.7,166.08 331.96,118.24 99.86,-33.11 183.09,-180.64 230.74,-247.48 l 591.97,-830.29 c 46.64,-65.42 160.85,-193.39 156.02,-301.44 -6.41,-143.75 -133.61,-236.89 -263.57,-215.09 -126.89,21.27 -200.82,164.06 -249.82,232.77 -64.95,91.11 -568.87,808.03 -595.35,827.43 z"
   id="path106" />
  </g>
  <g
   id="_2859006610880">
   <path
   class="fil0"
   d="m 3612.67,13318.93 c -901.5,183.16 -1434.11,993.93 -1282.53,1834.14 136.62,757.26 886.24,1461.5 1823.23,1285.54 770.12,-144.62 1473.32,-872.42 1296.54,-1839.58 -137.78,-753.75 -888.52,-1472.85 -1837.23,-1280.1 z"
   id="path109" />
   <path
   class="fil1"
   d="m 3566.75,14528.97 c -31.3,40.82 19.68,30.72 -92.82,33.85 l -308.02,-1.98 c -143.35,0.07 -287.02,-2.68 -430.35,2.16 l -0.03,629.09 c 158.61,6 799.45,-26.52 827.46,26.88 21.52,81.36 17.66,708.11 -2.31,807.47 l 642.42,6.11 -0.17,-737.98 c 3.47,-120.18 -3.98,-64.28 36.51,-94.94 l 803.28,-3.53 12.91,-634.36 -849.47,-5.85 -1.55,-843.64 -633.33,7.66 -4.52,809.07 z"
   id="path111" />
  </g>
  <g
   id="_2859006610336">
   <path
   class="fil0"
   d="m 5552.54,20333.42 0.26,-2081.87 c 0,-42.81 -24.15,-60.78 -84.93,-60.78 l -3265.17,0.02 c -309.85,29.6 -738.25,476.57 -918.27,687.67 l -250.83,293.29 c -64.62,60.33 -300.8,89.11 -404.74,123.23 -120.91,39.68 -287.06,102.61 -376.24,167.89 -210.21,153.84 -218.32,729.37 -144.48,863.06 l 422.47,3.36 c 35.87,189.55 49.37,273.22 161.81,383.92 89.31,87.95 210.44,163.52 388.92,162.78 167.45,-0.7 314.19,-83.4 388.98,-162.38 103.48,-109.27 116.73,-200.43 157.99,-384.17 l 2104.36,3.27 c 101.81,25.3 -6.91,175.52 194.38,378.95 217.38,219.67 553.18,221.12 775.42,1.34 117.6,-116.31 125.44,-192.1 162.1,-381.03 l 687.98,1.46 z"
   id="path114" />
   <path
   class="fil1"
   d="m 4334.42,20090.4 c 134.92,0 244.33,109.37 244.33,244.29 0,134.92 -109.41,244.29 -244.33,244.29 -134.92,0 -244.29,-109.37 -244.29,-244.29 0,-134.92 109.37,-244.29 244.29,-244.29 z M 227.04,19793.52 c 268.84,58.7 390.77,-230.16 291.65,-324.22 -35.45,-33.66 -167.37,62.58 -196.36,96.42 -46.18,53.9 -83.64,139.59 -95.28,227.81 z m 2684.86,-775.99 v -582.68 l -688.52,-0.17 c -112.16,4.8 -302.98,187.25 -359.37,248.04 -76.71,82.85 -248.17,252.14 -285.02,335.12 l 1332.9,-0.31 z M 1084.36,20090.4 c 134.92,0 244.29,109.37 244.29,244.29 0,134.92 -109.37,244.29 -244.29,244.29 -134.92,0 -244.33,-109.37 -244.33,-244.29 0,-134.92 109.41,-244.29 244.33,-244.29 z"
   id="path116" />
  </g>
  <g
   id="_2859006542880">
   <rect
   class="fil0"
   x="0"
   y="9752.3896"
   width="2304.5"
   height="2741.4199"
   rx="308.41"
   ry="290.26999"
   id="rect119" />
   <path
   class="fil1"
   d="m 428.34,10197.86 h 1439.24 v 248.44 H 428.34 Z m 0,1537.76 h 1439.24 v 248.44 H 428.34 Z m 0,-514.01 h 1439.24 v 248.44 H 428.34 Z m 0,-505.45 h 1439.24 v 248.44 H 428.34 Z"
   id="path121" />
  </g>
  <g
   id="_2859006542304">
   <path
   class="fil3"
   d="m 11592.04,3139.43 c -923.03,157.82 -1517.16,984.46 -1378.54,1878.67 125.27,808.15 904.7,1527.5 1882.49,1370.96 820.15,-131.31 1506.52,-896.08 1368.52,-1875.85 -112.7,-800.13 -915.5,-1537.4 -1872.47,-1373.79 z"
   id="path124" />
   <path
   class="fil0"
   d="m 11989.19,4696.25 c -1.1,-256.01 -0.2,-706.93 -0.2,-962.96 0,-178.56 22.05,-337.75 -181.32,-337.75 -170.13,0 -170.04,177.41 -163.32,360.7 0,372.18 -1.43,824.67 -1.43,1016.71 0,262.07 115.33,270.66 342.21,270.61 134.16,-0.04 908.43,16.16 995.48,-9.5 97.56,-28.77 154.02,-148.95 93.8,-251.65 -57.93,-98.78 -180.93,-83.56 -299.32,-83.28 -251.48,0.62 -538.44,12.37 -785.9,-2.88 z"
   id="path126" />
  </g>
  <g
   id="_2859006544704">
   <circle
   class="fil3"
   cx="11837.86"
   cy="9527.0596"
   r="1644.39"
   id="circle129" />
   <path
   class="fil0"
   d="m 11323.48,10135.75 615.77,481.48 c 20.21,15.47 71.59,63.71 92.82,66.52 l 0.14,-2235.2 c -33.25,11.35 -685.69,540.84 -712.1,548.36 -107.39,8.53 -496.26,-8.7 -547.85,5.22 -6.89,75.7 -4.27,1106.28 2.08,1129.77 l 549.14,3.84 z m 923.99,-1089.45 c 9.53,26.52 86.82,86.87 145.4,218.93 85.26,192.24 88.2,408.59 1.05,601.48 -28.04,62.03 -61.74,114.65 -103.34,165.72 -14.68,18.03 -34.09,34 -43.68,52.2 l 111.12,115.18 c 57.02,-36.37 149.69,-181.61 186.11,-262.14 48.54,-107.3 79.76,-233.23 79.95,-369.31 0.26,-190.55 -59.21,-367.1 -160.3,-513.65 -21.07,-30.56 -81.38,-107.9 -104.12,-119.33 l -112.18,110.93 z m 286.86,-286.03 c 9.33,20.04 46.3,53.84 64.26,75.38 22.71,27.24 40.35,48.68 61.17,79.05 37.82,55.21 73.3,114.08 104.22,182.38 166.42,367.86 125.77,790.14 -103.33,1120.27 l -126.95,159.9 c 31.74,25.31 88.15,97.18 118.71,111.13 117.61,-140.97 174.52,-189.45 262.66,-381.5 71.64,-156.06 115.52,-339.31 115.68,-538.52 0.34,-415.03 -180.16,-718.16 -379.28,-921.05 -20.77,9.4 -99.34,92.38 -117.14,112.96 z"
   id="path131" />
  </g>
  <g
   id="_2859006545984">
   <rect
   class="fil0"
   x="10193.47"
   y="17497.061"
   width="3331.0801"
   height="3043.0901"
   rx="417.84"
   ry="460.76999"
   id="rect134" />
   <path
   class="fil3"
   d="m 11995.09,19881.02 c 1.28,70.63 -12.55,174.95 17.86,231.14 27.85,51.47 94.52,96.17 173.09,78.46 47.62,-10.73 564.19,-319.11 654.43,-370.09 131.62,-74.34 269.85,-127.05 270.55,-244.5 0.73,-122.36 -129,-166.71 -262.75,-244.28 -45.56,-26.43 -616.59,-360.77 -653.37,-371.35 -86.7,-24.94 -152.51,24.34 -179.91,73.52 -39.74,71.33 -5.34,157.52 -23.77,233.34 -154.14,2.59 -705.44,7.77 -827.48,-10.37 -375.62,-55.83 -490.13,-274.37 -545.89,-298.27 -23.5,155.6 5.09,371.69 57.17,505.04 126.42,323.61 407.43,417.17 740.07,417.09 192.89,-0.04 387.31,-2.38 580,0.25 z m -264.76,-1153.58 c 122.55,-6.74 716.27,-5.59 821.92,9.23 296.44,41.58 375.8,147.69 544.63,296.88 1.34,-2.16 2.76,-8.05 3.25,-6.88 0.49,1.16 2.41,-4.98 3.02,-6.85 16.18,-49.85 -4.93,26.62 4.42,-13.7 23.93,-103.28 -20.38,-365.67 -60.83,-474.96 -120.28,-324.86 -413.78,-417.81 -739.91,-417.75 -193.29,0.03 -386.83,0.51 -579.97,-0.03 -2.49,-69.82 12.18,-174.97 -18.18,-231.03 -27.05,-49.89 -92.4,-96.79 -173.37,-78.61 -43.83,9.84 -601.43,339.73 -653.82,370.43 -132.6,77.7 -269.73,121.05 -270.97,244.33 -1.24,124.22 132.88,166.69 264.06,243.34 48.71,28.46 614.32,360.84 652.52,371.97 87.16,25.41 152.7,-26.23 179.46,-74.17 39.89,-71.52 5.47,-156.61 23.77,-232.21 z"
   id="path136" />
  </g>
  <g
   id="_2859006546656">
   <circle
   class="fil3"
   cx="11837.86"
   cy="14821.5"
   r="1644.39"
   id="circle139" />
   <path
   class="fil4"
   d="m 12535.56,15165.27 c 0,-159.25 -42.96,-288.17 -139.04,-379.18 -75.83,-70.79 -179.47,-116.29 -343.79,-141.55 l -96.05,-15.16 v -439.87 c 103.62,7.59 227.5,40.46 310.92,121.34 l 222.45,-219.92 c -136.5,-131.42 -293.25,-194.63 -498,-207.26 v -225 h -255.3 v 227.51 c -328.63,35.41 -525.8,250.25 -525.8,540.96 0,151.67 43,265.42 128.93,351.38 75.83,75.83 197.16,131.45 348.84,151.67 l 80.9,10.12 v 457.52 c -151.67,-5.05 -295.76,-45.5 -401.92,-151.67 l -227.5,227.5 c 164.29,166.83 353.88,230.04 596.55,237.63 v 272.99 h 255.3 v -283.12 c 315.99,-37.92 543.5,-227.5 543.5,-535.88 z m -343.79,10.12 c 0,123.85 -83.42,199.68 -235.09,217.38 v -434.8 c 93.54,12.67 139.03,27.83 179.47,65.75 37.92,35.38 55.62,88.46 55.62,151.67 z m -422.14,-561.17 c -70.79,-10.12 -126.41,-32.87 -166.83,-70.79 -37.92,-35.39 -53.08,-83.42 -53.08,-128.93 0,-111.24 73.29,-202.24 219.91,-222.45 v 422.16 z"
   id="path141" />
  </g>
  <g
   id="_2859006547328">
   <path
   class="fil0"
   d="m 5891.57,5669.9 c -72.78,22 -111.75,125.49 -168.14,224.32 -50.81,89.06 -97.16,168.49 -145.82,250.42 -391.05,658.43 -771.59,1346.65 -1160.91,2013.29 -48.47,83.02 -92.47,159.04 -145.64,251.08 -20.98,36.31 -59.56,83.06 -39.16,142.14 18.97,54.95 67.77,69.94 131.45,70.03 l 2377.4,-0.39 c 136.24,-0.02 702.16,17.92 790.02,-4.49 46.01,-11.74 83.68,-54.6 77.48,-113.51 -3.36,-31.9 -52.59,-107.83 -67.94,-134.45 -46.46,-80.55 -93.76,-166.25 -145.42,-253.38 -293.88,-495.55 -578.78,-1009.69 -870.28,-1506.56 -96.94,-165.25 -195.09,-337.54 -290.98,-504.04 -50.55,-87.78 -96.26,-166.04 -145.57,-251.18 -42.29,-73.05 -90.35,-215.36 -196.49,-183.27 z"
   id="path144" />
   <path
   class="fil1"
   d="m 5839.54,7812.7 151.4,3.71 c 16,-38.46 129.73,-1088.53 136.23,-1200.86 8.46,-147.13 -54.12,-250.87 -199.94,-254.58 -138.8,-3.58 -226.5,84.69 -220.83,226.19 l 133.13,1225.54 z m 77.1,107.67 c 114.47,0 207.27,92.8 207.27,207.27 0,114.47 -92.8,207.27 -207.27,207.27 -114.47,0 -207.27,-92.8 -207.27,-207.27 0,-114.47 92.8,-207.27 207.27,-207.27 z"
   id="path146" />
  </g>
  <g
   id="_2859006549088">
   <circle
   class="fil0"
   cx="11837.86"
   cy="23468.119"
   r="1644.39"
   id="circle149" />
   <path
   class="fil5"
   d="m 12535.56,23811.89 c 0,-159.25 -42.96,-288.17 -139.04,-379.18 -75.83,-70.79 -179.47,-116.29 -343.79,-141.55 l -96.05,-15.16 v -439.87 c 103.62,7.59 227.5,40.46 310.92,121.34 l 222.45,-219.92 c -136.5,-131.42 -293.25,-194.63 -498,-207.26 v -225 h -255.3 v 227.51 c -328.63,35.41 -525.8,250.25 -525.8,540.96 0,151.67 43,265.42 128.93,351.38 75.83,75.83 197.16,131.45 348.84,151.67 l 80.9,10.12 v 457.52 c -151.67,-5.05 -295.76,-45.5 -401.92,-151.67 l -227.5,227.5 c 164.29,166.83 353.88,230.04 596.55,237.63 v 272.99 h 255.3 v -283.12 c 315.99,-37.92 543.5,-227.5 543.5,-535.88 z m -343.79,10.12 c 0,123.85 -83.42,199.68 -235.09,217.38 v -434.8 c 93.54,12.67 139.03,27.83 179.47,65.75 37.92,35.38 55.62,88.46 55.62,151.67 z m -422.14,-561.17 c -70.79,-10.12 -126.41,-32.87 -166.83,-70.79 -37.92,-35.39 -53.08,-83.42 -53.08,-128.93 0,-111.24 73.29,-202.24 219.91,-222.45 v 422.16 z"
   id="path151" />
  </g>
 </g>
</svg>
